<svg width="560" height="264" viewBox="0 0 560 264" fill="none" xmlns="http://www.w3.org/2000/svg">
<g clip-path="url(#clip0_229_197)">
<g clip-path="url(#clip1_229_197)">
<g clip-path="url(#clip2_229_197)">
<path fill-rule="evenodd" clip-rule="evenodd" d="M559.92 264H0V0H560V264H559.92Z" fill="#0058AB"/>
<path fill-rule="evenodd" clip-rule="evenodd" d="M11.2 132C11.2 196.895 123.851 250.8 280.04 250.8C436.229 250.8 548.8 196.895 548.8 132C548.8 67.1055 436.149 13.2 280.04 13.2C123.931 13.2 11.2 67.1055 11.2 132Z" fill="#FBD914"/>
<path d="M260.109 171.631C261.874 174.586 263.801 177.356 266.048 179.849H205.449C205.449 177.079 203.122 171.446 200.553 167.014C197.985 162.582 184.099 138.298 184.099 138.298V171.631C184.099 174.401 184.099 177.079 185.303 179.849H134.818C136.022 177.079 136.022 174.401 136.022 171.631V92.4053C136.022 89.6353 136.022 86.9576 134.818 84.1876H185.303C184.099 86.9576 184.099 89.6353 184.099 92.4053V127.032C184.099 127.032 200.232 102.84 203.925 97.2068C206.734 92.9597 210.185 86.957 210.185 84.1876H262.838C259.226 86.9576 255.213 91.9439 251.922 96.5606C249.032 100.624 232.659 123.615 232.659 123.615C232.659 123.615 256.898 166.183 260.108 171.631H260.109ZM276 92.4053V171.631C276 174.401 276 177.079 274.796 179.849H372.236V153.256C369.828 154.641 367.5 154.641 365.093 154.641H324.078V142.083H363.487V121.953H324.078V109.303H365.093C367.501 109.303 369.828 109.303 372.236 110.596V84.0952H274.796C276 86.9576 276 89.6353 276 92.4053ZM507.238 171.631C508.04 174.678 509.405 177.448 511.171 179.849H458.358C458.599 177.079 457.716 174.401 456.753 171.631C456.753 171.631 455.95 169.415 454.826 166.183L454.345 164.798H423.925L423.443 166.275C423.443 166.275 422.56 168.953 421.758 171.723C420.955 174.493 420.072 177.171 420.394 179.941H378.737C380.439 177.519 381.72 174.727 382.51 171.723L407.471 92.4977C408.354 89.7277 409.237 87.05 408.916 84.28H479.306C478.664 87.05 479.949 89.7277 480.832 92.4977C482.918 98.4997 505.472 166.275 507.238 171.631ZM447.683 144.576L440.299 122.415C439.657 120.384 439.095 118.26 438.693 116.136C438.372 118.276 437.889 120.377 437.249 122.415C437.008 123.339 433.877 133.034 430.265 144.576H447.683ZM110.9 84.1876H56C57.204 86.9576 57.204 89.6353 57.204 92.4053V171.631C57.204 174.401 57.204 177.079 56 179.849H110.9C109.696 177.079 109.696 174.401 109.696 171.631V92.4053C109.696 89.6353 109.696 86.9576 110.9 84.1876ZM490.382 91.7591C490.142 85.0185 494.717 79.3861 500.576 79.2013H501.299C507.238 79.1089 512.134 84.4642 512.214 91.2971V91.7591C512.375 98.6845 507.639 104.502 501.539 104.687C495.519 104.871 490.463 99.4231 490.302 92.4053C490.382 92.2205 490.382 91.9433 490.382 91.7585V91.7591ZM492.55 91.7591C492.55 97.2992 496.483 101.824 501.299 101.824C506.115 101.824 510.047 97.2992 510.047 91.7591C510.047 86.2191 506.114 81.6941 501.299 81.6941C496.643 81.5093 492.71 85.6647 492.55 91.0199V91.7591ZM499.131 99.2383H497.205V84.0952H502.101C504.429 84.1876 506.195 86.3108 506.195 88.9891C506.195 90.8358 505.311 92.4977 503.867 93.421L506.676 99.2383H504.509L501.94 93.883H499.131V99.2383ZM499.131 91.7591H501.78C503.064 91.8515 504.188 90.7427 504.188 89.2656C504.188 87.7886 503.305 86.4956 502.021 86.4956H499.131V91.7591Z" fill="#0058A3"/>
</g>
</g>
</g>
<defs>
<clipPath id="clip0_229_197">
<rect width="560" height="264" fill="white"/>
</clipPath>
<clipPath id="clip1_229_197">
<rect width="560" height="264" fill="white"/>
</clipPath>
<clipPath id="clip2_229_197">
<rect width="560" height="264" fill="white"/>
</clipPath>
</defs>
</svg>
